# xmcd
# 
# Track frame offsets:
#     150
#     13761
#     31339
#     44995
#     62737
#     75508
#     90254
#     101127
#     114031
#     126506
#     141290
#     157092
#     160571
# 
# Disc length: 2371
# 
# Revision: 0
# Processed by: cddbd v1.5.2PL0 Copyright (c) Steve Scherf et al.
# Submitted via: BonkEnc v1.0.6
# 
DISCID=a609410d
DTITLE=Bob Wayne - 13 Truckin' Songs
DYEAR=2006
DGENRE=Country
TTITLE0=Mack
TTITLE1=Mornin' Time
TTITLE2=Devil's Son
TTITLE3=Showdown
TTITLE4=Chatterbox
TTITLE5=Left Behind
TTITLE6=Long Way Down
TTITLE7=The Laugh
TTITLE8=100k
TTITLE9=Movin' Out
TTITLE10=1985
TTITLE11=One For The Ladies
TTITLE12=Neath the Stone
EXTD=
EXTT0=
EXTT1=
EXTT2=
EXTT3=
EXTT4=
EXTT5=
EXTT6=
EXTT7=
EXTT8=
EXTT9=
EXTT10=
EXTT11=
EXTT12=
PLAYORDER=
